<?xml version="1.0" encoding="utf-8"?>
<!-- Svg Vector Icons : http://www.onlinewebfonts.com/icon -->
<!DOCTYPE svg PUBLIC "-//W3C//DTD SVG 1.1//EN" "http://www.w3.org/Graphics/SVG/1.1/DTD/svg11.dtd">
<svg version="1.1" xmlns="http://www.w3.org/2000/svg" xmlns:xlink="http://www.w3.org/1999/xlink" x="0px" y="0px" viewBox="0 0 256 256" enable-background="new 0 0 256 256" xml:space="preserve">
<metadata> Svg Vector Icons : http://www.onlinewebfonts.com/icon </metadata>
<g><g><path fill="#000000" d="M208.9,105.6c2.1-1.1,2.1-2.7,0-3.8L208.9,105.6z"/><path fill="#000000" d="M113.7,54.6c-2.1-1-5.5-1-7.6,0L113.7,54.6z"/><path fill="#000000" d="M52.9,129.9v53.6l75.1,41l75.1-41v-53.6l-75.1,41L52.9,129.9z"/><path fill="#000000" d="M128,31.5L10,95.8l118,64.4l96.5-52.7v74.1H246V95.8L128,31.5L128,31.5z M234.4,101.8l-98.9-10.2c-0.7,3.6-3.8,6.3-7.6,6.3c-4.3,0-7.7-3.4-7.7-7.7c0-4.3,3.4-7.7,7.7-7.7c3.3,0,6,2,7.2,4.9L238.8,98L234.4,101.8L234.4,101.8z"/></g></g>
</svg>